# xmcd CD database file
#
# Track frame offsets:
#	150
#	14768
#	29059
#	46634
#	71417
#	94348
#	99658
#	113873
#	130991
#	150456
#	159349
#
# Disc length: 2386 seconds
#
# Revision: 1
# Processed by: cddbd v1.5.1PL2 Copyright (c) Steve Scherf et al.
# Submitted via: CDex 1.60beta1-cs1
#
DISCID=8c09500b
DTITLE=Marlena Shaw - Who Is This Bitch, Anyway?
DYEAR=1974
DGENRE=Jazz
TTITLE0=You, Me and Ethel-Dialogue
TTITLE1=Street Walkin' Woman
TTITLE2=You Taught Me How To Speak In Love
TTITLE3=Davy
TTITLE4=Feel Like Makin' Love
TTITLE5=The Lord Giveth And The Lord Taketh Away
TTITLE6=You Been Away Too Long
TTITLE7=You
TTITLE8=Loving You Was Like A Party
TTITLE9=Prelude For Rose Marie
TTITLE10=Rose Marie (Mon Cherie)
EXTD=YEAR: 1974
EXTT0=
EXTT1=
EXTT2=
EXTT3=
EXTT4=
EXTT5=
EXTT6=
EXTT7=
EXTT8=
EXTT9=
EXTT10=
PLAYORDER=
